<svg width="25" height="25" viewBox="0 0 25 25" fill="none" xmlns="http://www.w3.org/2000/svg">
<circle cx="12.5767" cy="12.3433" r="11.9176" stroke="#00999E" stroke-width="0.85126"/>
<path d="M13.6868 6.81076C14.1393 6.80902 14.5919 6.81357 15.0443 6.8244L15.1647 6.82875C15.3036 6.83371 15.4406 6.83991 15.6062 6.84735C16.2661 6.87836 16.7163 6.98255 17.1114 7.13574C17.5207 7.29326 17.8655 7.50661 18.2103 7.85143C18.5256 8.16127 18.7696 8.53608 18.9254 8.94977C19.0786 9.34483 19.1827 9.7957 19.2138 10.4556C19.2212 10.6205 19.2274 10.7582 19.2324 10.8971L19.2361 11.0175C19.2471 11.4697 19.2519 11.9221 19.2503 12.3744L19.251 12.8371V13.6495C19.2525 14.1021 19.2477 14.5547 19.2367 15.0071L19.233 15.1274C19.228 15.2663 19.2218 15.4034 19.2144 15.569C19.1834 16.2289 19.0779 16.6791 18.9254 17.0742C18.7701 17.4883 18.526 17.8634 18.2103 18.1731C17.9002 18.4884 17.5252 18.7324 17.1114 18.8882C16.7163 19.0414 16.2661 19.1456 15.6062 19.1766C15.4406 19.184 15.3036 19.1902 15.1647 19.1952L15.0443 19.1989C14.5919 19.2099 14.1393 19.2147 13.6868 19.2132L13.2241 19.2138H12.4123C11.9598 19.2153 11.5072 19.2106 11.0548 19.1995L10.9345 19.1958C10.7872 19.1905 10.64 19.1843 10.4929 19.1772C9.83303 19.1462 9.38279 19.0408 8.98712 18.8882C8.57327 18.7327 8.19841 18.4887 7.88879 18.1731C7.57316 17.8632 7.32892 17.4882 7.17312 17.0742C7.01993 16.6791 6.91574 16.2289 6.88474 15.569C6.87783 15.4218 6.87163 15.2746 6.86613 15.1274L6.86303 15.0071C6.8516 14.5547 6.84643 14.1021 6.84753 13.6495V12.3744C6.84579 11.9221 6.85034 11.4697 6.86117 11.0175L6.86551 10.8971C6.87047 10.7582 6.87667 10.6205 6.88412 10.4556C6.91512 9.79508 7.01931 9.34545 7.1725 8.94977C7.32839 8.53587 7.5731 8.16117 7.88941 7.85205C8.19882 7.53622 8.57344 7.29176 8.98712 7.13574C9.38279 6.98255 9.83241 6.87836 10.4929 6.84735L10.9345 6.82875L11.0548 6.82565C11.507 6.81422 11.9593 6.80905 12.4117 6.81014L13.6868 6.81076ZM13.0492 9.91105C12.2268 9.91105 11.4381 10.2378 10.8566 10.8193C10.2751 11.4008 9.94839 12.1896 9.94839 13.012C9.94839 13.8344 10.2751 14.6231 10.8566 15.2046C11.4381 15.7862 12.2268 16.1129 13.0492 16.1129C13.8716 16.1129 14.6604 15.7862 15.2419 15.2046C15.8234 14.6231 16.1501 13.8344 16.1501 13.012C16.1501 12.1896 15.8234 11.4008 15.2419 10.8193C14.6604 10.2378 13.8716 9.91105 13.0492 9.91105ZM13.0492 11.1514C13.2936 11.1514 13.5355 11.1995 13.7613 11.2929C13.987 11.3864 14.1921 11.5234 14.3649 11.6961C14.5377 11.8689 14.6748 12.074 14.7683 12.2997C14.8619 12.5254 14.91 12.7673 14.9101 13.0117C14.9101 13.256 14.862 13.4979 14.7686 13.7237C14.6751 13.9494 14.5381 14.1546 14.3654 14.3274C14.1926 14.5002 13.9875 14.6372 13.7618 14.7308C13.5361 14.8243 13.2942 14.8725 13.0499 14.8725C12.5564 14.8725 12.0832 14.6765 11.7343 14.3276C11.3854 13.9787 11.1894 13.5054 11.1894 13.012C11.1894 12.5185 11.3854 12.0453 11.7343 11.6964C12.0832 11.3474 12.5564 11.1514 13.0499 11.1514M16.3058 8.98078C16.1057 8.98879 15.9165 9.0739 15.7778 9.21829C15.639 9.36268 15.5616 9.55515 15.5616 9.75539C15.5616 9.95562 15.639 10.1481 15.7778 10.2925C15.9165 10.4369 16.1057 10.522 16.3058 10.53C16.5114 10.53 16.7085 10.4483 16.8539 10.3029C16.9993 10.1576 17.081 9.96037 17.081 9.75477C17.081 9.54917 16.9993 9.35198 16.8539 9.2066C16.7085 9.06122 16.5114 8.97954 16.3058 8.97954" fill="#00999E"/>
</svg>
