<svg width="37" height="37" viewBox="0 0 37 37" fill="none" xmlns="http://www.w3.org/2000/svg">
<rect x="0.600098" y="0.199951" width="36" height="36" rx="18" fill="#F0F0F0"/>
<g clip-path="url(#clip0_269_1622)">
<path fill-rule="evenodd" clip-rule="evenodd" d="M13.8001 16.3454C15.0441 18.8354 17.1781 20.8794 19.6671 22.2124L21.6221 20.2564C21.8891 19.9904 22.2441 19.9014 22.5121 20.0794C23.4891 20.4344 24.5561 20.6124 25.7121 20.6124C26.2441 20.6124 26.6001 20.9684 26.6001 21.5014V24.5234C26.6001 25.0564 26.2441 25.4124 25.7111 25.4124C17.3561 25.4124 10.6001 18.6564 10.6001 10.3014C10.6001 9.76835 10.9561 9.41235 11.4891 9.41235H14.6001C15.1331 9.41235 15.4891 9.76835 15.4891 10.3014C15.4891 11.3684 15.6671 12.4344 16.0221 13.5014C16.1121 13.7684 16.0221 14.1234 15.8441 14.3904L13.8001 16.3454Z" fill="#00999E"/>
</g>
<defs>
<clipPath id="clip0_269_1622">
<rect width="16" height="16" fill="white" transform="translate(10.6001 9.41235)"/>
</clipPath>
</defs>
</svg>
